<?xml version="1.0" encoding="UTF-8"?>
<svg width="128" height="128" viewBox="0 0 512 512" xmlns="http://www.w3.org/2000/svg">
  <defs>
    <!-- 科技感渐变 -->
    <linearGradient id="bgGradient" x1="0%" y1="0%" x2="100%" y2="100%">
      <stop offset="0%" style="stop-color:#0f0f23;stop-opacity:1" />
      <stop offset="50%" style="stop-color:#1a1a2e;stop-opacity:1" />
      <stop offset="100%" style="stop-color:#16213e;stop-opacity:1" />
    </linearGradient>
    
    <!-- Jy文字渐变 -->
    <linearGradient id="textGradient" x1="0%" y1="0%" x2="100%" y2="100%">
      <stop offset="0%" style="stop-color:#00d4ff;stop-opacity:1" />
      <stop offset="100%" style="stop-color:#0099cc;stop-opacity:1" />
    </linearGradient>
    
    <!-- 瓦斯罐渐变 -->
    <linearGradient id="gasGradient" x1="0%" y1="0%" x2="100%" y2="100%">
      <stop offset="0%" style="stop-color:#ff6b35;stop-opacity:1" />
      <stop offset="100%" style="stop-color:#ff4444;stop-opacity:1" />
    </linearGradient>
    
    <!-- 光晕效果 -->
    <filter id="glow">
      <feGaussianBlur stdDeviation="4" result="coloredBlur"/>
      <feMerge> 
        <feMergeNode in="coloredBlur"/>
        <feMergeNode in="SourceGraphic"/>
      </feMerge>
    </filter>
  </defs>
  
  <!-- 背景圆形 -->
  <circle cx="256" cy="256" r="240" fill="url(#bgGradient)" stroke="#00d4ff" stroke-width="8" opacity="0.95"/>
  
  <!-- 外层光晕圆环 -->
  <circle cx="256" cy="256" r="230" fill="none" stroke="#00d4ff" stroke-width="2" opacity="0.3" filter="url(#glow)"/>
  
  <!-- 瓦斯罐图标 -->
  <g transform="translate(180, 120)">
    <!-- 瓦斯罐主体 -->
    <rect x="20" y="40" width="80" height="140" rx="10" ry="10" fill="url(#gasGradient)" stroke="#ff4444" stroke-width="2"/>
    <!-- 瓦斯罐顶部阀门 -->
    <rect x="35" y="20" width="50" height="30" rx="5" ry="5" fill="#666" stroke="#333" stroke-width="1"/>
    <!-- 阀门手柄 -->
    <circle cx="60" cy="35" r="8" fill="#888" stroke="#555" stroke-width="1"/>
    <!-- 瓦斯罐底部 -->
    <ellipse cx="60" cy="185" rx="40" ry="10" fill="#cc3333"/>
    <!-- 安全标识 -->
    <circle cx="60" cy="110" r="20" fill="#ffaa00" opacity="0.8"/>
    <text x="60" y="118" text-anchor="middle" font-family="Arial" font-size="24" font-weight="bold" fill="#fff">!</text>
  </g>
  
  <!-- Jy 品牌文字 -->
  <g transform="translate(256, 320)">
    <!-- J 字母 -->
    <text x="-40" y="0" text-anchor="middle" font-family="Arial Black" font-size="120" font-weight="900" 
          fill="url(#textGradient)" filter="url(#glow)">J</text>
    <!-- y 字母 -->
    <text x="20" y="0" text-anchor="middle" font-family="Arial Black" font-size="90" font-weight="900" 
          fill="url(#textGradient)" filter="url(#glow)">y</text>
  </g>
  
  <!-- 技術團隊小字 -->
  <text x="256" y="420" text-anchor="middle" font-family="Arial" font-size="28" font-weight="600" 
        fill="#00d4ff" opacity="0.8">技術團隊</text>
  
  <!-- 装饰性科技线条 -->
  <g stroke="#00d4ff" stroke-width="2" fill="none" opacity="0.4">
    <!-- 左上角装饰 -->
    <path d="M80 80 L140 80 L140 140" stroke-linecap="round"/>
    <circle cx="120" cy="100" r="3" fill="#00d4ff"/>
    
    <!-- 右上角装饰 -->
    <path d="M432 80 L372 80 L372 140" stroke-linecap="round"/>
    <circle cx="392" cy="100" r="3" fill="#00d4ff"/>
    
    <!-- 左下角装饰 -->
    <path d="M80 432 L140 432 L140 372" stroke-linecap="round"/>
    <circle cx="120" cy="412" r="3" fill="#00d4ff"/>
    
    <!-- 右下角装饰 -->
    <path d="M432 432 L372 432 L372 372" stroke-linecap="round"/>
    <circle cx="392" cy="412" r="3" fill="#00d4ff"/>
  </g>
  
  <!-- 中心光点 -->
  <circle cx="256" cy="256" r="4" fill="#00d4ff" filter="url(#glow)"/>
</svg>